
Genre:Action | Drama | Thriller
Language:English
IMDb:http://www.imdb.com/title/tt1243957/
Source:SERENiTY/Audio:T0XiC-iNK Thx.


Format : AVI
Format/Info : Audio Video Interleave
File size : 1.21 GiB
Duration : 1h 35mn
Overall bit rate : 1 799 Kbps


Video
Codec ID/Hint : XviD
Duration : 1h 35mn
Bit rate : 1 661 Kbps
Width : 720 pixels
Height : 304 pixels
Display aspect ratio : 2.35:1
Frame rate : 25.000 fps
Color space : YUV
Chroma subsampling : 4:2:0
Bit depth : 8 bits
Scan type : Progressive
Bits/(Pixel*Frame) : 0.304
Stream size : 1.11 GiB (92%)
Writing library : XviD 1.2.1 (UTC 2008-12-04)

Audio
ID : 1
Format : MPEG Audio
Format version : Version 1
Format profile : Layer 3
Mode : Joint stereo
Mode extension : MS Stereo
Codec ID : 55
Codec ID/Hint : MP3
Duration : 1h 35mn
Bit rate mode : Constant
Bit rate : 128 Kbps
Channel(s) : 2 channels
Sampling rate : 48.0 KHz
Stream size : 87.8 MiB (7%)
Alignment : Split accross interleaves
Interleave, duration : 40 ms (1.00 video frame)
Interleave, preload duration : 500 ms


Plot:
Revolves around Frank, an American tourist visiting Italy to mend a broken heart. Elise is an extraordinary woman who deliberately crosses his path
 
http://www.rapidhdd.com/images/514549vlcsnap-2010-12-18-18h04m15s123.png
 
http://www.rapidhdd.com/images/443313vlcsnap-2010-12-18-17h59m00s55.png
 
http://www.rapidhdd.com/images/84247vlcsnap-2010-12-18-17h57m38s6.png
 
http://rapidhdd.com/images/574424vlcsnap-2010-12-18-17h56m56s87.png
 
http://www.rapidhdd.com/images/4792vlcsnap-2010-12-18-17h57m29s174.png